# xmcd CD database file
#
# Track frame offsets:
#	182
#	25732
#	40370
#	57402
#	66212
#	76722
#	87172
#	96802
#	101685
#	115577
#	129362
#	144500
#
# Disc length: 2289 seconds
#
# Revision: 0
# Processed by: cddbd v1.5.2PL0 Copyright (c) Steve Scherf et al.
# Submitted via: CDex 1.51
#
DISCID=9408ef0c
DTITLE=Mohammad Shams - Suite persane (pour flûte et orchestre)
DYEAR=1900
DGENRE=Musique Persane
TTITLE0=Suite persane de M. Shams
TTITLE1=Le pays de l'amour
TTITLE2=Mon destin
TTITLE3=Air d'Ispahan
TTITLE4=Joyeux Guilan
TTITLE5=Danse de Ghassem-Abâd de A. Saba
TTITLE6=Zardé Malidjé
TTITLE7=Dans la cage
TTITLE8=Variation sur un thème Lor de K. Shahroudi
TTITLE9=Tchahar Mezrab dans le mode Dashti de M. Shams
TTITLE10=La danse des violettes
TTITLE11=Complainte
EXTD=
EXTT0=
EXTT1=
EXTT2=
EXTT3=
EXTT4=
EXTT5=
EXTT6=
EXTT7=
EXTT8=
EXTT9=
EXTT10=
EXTT11=
PLAYORDER=
